#!OML:ASF E:/inclinewalkrobotboard/Project1/Captureday1/Session1/subject1.ASF
:FULLY-SPECIFIED
:DEGREES
38
root 0 0 0 1.2578799135918648 -3.5917529205471226 1.899727071324413
lowerback 12.04299952834534 0.8484196201780229 -0.10758896845306254
upperback -4.409182083344765 1.0654842352343643 -0.6024266049969219
thorax -11.57275291802905 0.48734505642638876 -0.8027312686321146
lowerneck -5.961387395573844 1.7282454726620224 4.700337919888982
upperneck 18.393481194088118 3.2870767281269266 -8.46915065712288
head 6.7313704122050435 1.2127319746035603 -3.2531648996301055
rclavicle -3.622634990025603E-16 -2.104358797456583E-15
rhumerus 20.792525706904456 14.83876714490041 -47.29778721420185
rradius 72.87635431704923
rwrist 27.414256373087607
rhand -34.558260362806294 -57.65168395947895
rfingers 7.12502000000002
rthumb -7.751524324225743 -87.60866105726979
lclavicle -2.1841623968156457E-15 4.2827998853011373E-16
lhumerus 21.890372379015034 -13.057736589112022 44.44993431716832
lradius 70.73912059249255
lwrist -22.50474980687853
lhand -45.09514167869462 -70.84333892303835
lfingers 7.125020000000016
lthumb -17.85667034487856 -41.89957418203403
rfemur -25.623797967687818 -2.370027582049463 16.87581986795346
rtibia 54.52068900333202
rfoot -31.333156080570145 -17.85909618159579
rtoes -19.021477581207865
lfemur -27.99778235449888 2.83563568182613 -18.345301838435446
ltibia 54.79889530473995
lfoot -33.219717695181394 -3.52932299733147
ltoes -20.635284173480947
39
root 0 0 0 1.2582584668852088 -3.591783680829281 1.8997562055077957
lowerback 12.042906080885382 0.8482742726409412 -0.10765508296128767
upperback -4.409469430237544 1.0653178639564214 -0.6024594040157757
thorax -11.57302889109722 0.48725036702255864 -0.802752035366709
lowerneck -5.961957794573773 1.72827232946859 4.699889687553311
upperneck 18.39368779129172 3.2870952903663246 -8.468635745084672
head 6.731546416800299 1.2127355750288031 -3.2529004173816976
rclavicle -3.7835257007330944E-16 -2.1118424564722787E-15
rhumerus 20.789824719357433 14.83365379879458 -47.295071112432666
rradius 72.87532073524702
rwrist 27.417809875080664
rhand -34.55805631237513 -57.65171150284695
rfingers 7.12502000000002
rthumb -7.751546987471146 -87.6079244185157
lclavicle -2.2043402024307828E-15 4.1993926100201064E-16
lhumerus 21.89006182888737 -13.058577310137922 44.4512619444275
lradius 70.73876518605479
lwrist -22.502381616135807
lhand -45.09599022387076 -70.84184721952145
lfingers 7.125020000000016
lthumb -17.857594061694623 -41.89868143939722
rfemur -25.61693062880532 -2.3708358376957737 16.876746021906797
rtibia 54.520126023188396
rfoot -31.33876066470755 -17.8539038383683
rtoes -19.031687230098576
lfemur -27.990818252263296 2.8327434809186185 -18.34257377945671
ltibia 54.786500714655624
lfoot -33.21849925239597 -3.5317876948667486
ltoes -20.653799200048184
40
root 0 0 0 1.2582142638870972 -3.5918180712279826 1.8996275828175344
lowerback 12.042823335538918 0.8482934302630502 -0.10760846920850431
upperback -4.4094957475513334 1.0653497065743243 -0.6024291230841591
thorax -11.573010104796374 0.48726525053648945 -0.8027541647399601
lowerneck -5.961862489641633 1.728337134414965 4.69994653709634
upperneck 18.39378307908076 3.2871874454800682 -8.468724810956562
head 6.731556708745825 1.2127706938839822 -3.252926266479186
rclavicle -3.776324114463004E-16 -2.1123930132302705E-15
rhumerus 20.789416718605032 14.83292871488691 -47.29437332828166
rradius 72.87496987921945
rwrist 27.418537143832815
rhand -34.558146284148734 -57.65209071143281
rfingers 7.12502000000002
rthumb -7.751650165206723 -87.60836164368686
lclavicle -2.202888030060707E-15 4.1914600785226933E-16
lhumerus 21.89007725394896 -13.058086202723095 44.4508698767967
lradius 70.73864223957193
lwrist -22.502815962714713
lhand -45.09591428790875 -70.84235681320543
lfingers 7.125020000000016
lthumb -17.857522543666573 -41.899292556101
rfemur -25.61448789327631 -2.3711552989365616 16.87677045667478
rtibia 54.52112335506888
rfoot -31.33782178804247 -17.852136832915768
rtoes -19.03537288987716
lfemur -27.988019922472965 2.8320116654482432 -18.342080733507142
ltibia 54.78517000167199
lfoot -33.2171648966016 -3.5335535792038923
ltoes -20.65851374703876
41
root 0 0 0 1.2581610930943716 -3.591798141708056 1.8996030425449368
lowerback 12.042779034677812 0.8483033363676835 -0.10760680841856374
upperback -4.40949830225063 1.0653617263436372 -0.6024226550072288
thorax -11.57298938668299 0.4872710806514396 -0.8027505653031335
lowerneck -5.96182028104017 1.7283598297187115 4.699991130201787
upperneck 18.393814874995854 3.2872200396414826 -8.468787178210357
head 6.7315583184596255 1.2127826122061345 -3.25294955352223
rclavicle -3.7790452904893254E-16 -2.1126097997948637E-15
rhumerus 20.789015619066006 14.832324414549168 -47.293931236049325
rradius 72.87466501066238
rwrist 27.419013086083794
rhand -34.558161711301224 -57.652225093453616
rfingers 7.12502000000002
rthumb -7.75167022175221 -87.60848274830985
lclavicle -2.2031360894779165E-15 4.190118029285712E-16
lhumerus 21.890025295569068 -13.0577721307255 44.450697145908244
lradius 70.73850743939609
lwrist -22.503034811867018
lhand -45.09591841108785 -70.84271322337037
lfingers 7.125020000000016
lthumb -17.857526880163697 -41.89967917734661
rfemur -25.6134296244065 -2.3713564109917176 16.876678669274497
rtibia 54.52195376164743
rfoot -31.33682651251047 -17.851315045722707
rtoes -19.036440081581667
lfemur -27.98699979170942 2.8320233015876903 -18.342350284657467
ltibia 54.785900308730305
lfoot -33.21617437670475 -3.534757069021277
ltoes -20.659277594042884
42
root 0 0 0 1.2576444786859349 -3.591173895829675 1.8995557313668563
lowerback 12.042963393139228 0.8481596197274084 -0.1075789154030542
upperback -4.409417896483438 1.065217931344376 -0.6023729269933052
thorax -11.573015156040178 0.4871855976451349 -0.8027388701604077
lowerneck -5.962159686057778 1.7281774698045604 4.699930573276782
upperneck 18.39373991405157 3.286945049441515 -8.468625391167743
head 6.731606322076333 1.2126611485460437 -3.252932717665759
rclavicle -3.867874626201184E-16 -2.099597260013251E-15
rhumerus 20.787338525800635 14.829661211290192 -47.2945633352315
rradius 72.87553337098893
rwrist 27.418583734275472
rhand -34.55933031875932 -57.65183986945278
rfingers 7.12502000000002
rthumb -7.752682044605029 -87.60702222167549
lclavicle -2.2363943283620874E-15 4.3010010998015177E-16
lhumerus 21.89073201358122 -13.06114100204043 44.45244282057769
lradius 70.74024272198623
lwrist -22.50050797349199
lhand -45.09546177561299 -70.83707657908603
lfingers 7.125020000000016
lthumb -17.85693227294762 -41.89384187288161
rfemur -25.614661096362457 -2.375812640039306 16.878721729974707
rtibia 54.52904109402875
rfoot -31.331799506991192 -17.85001722467696
rtoes -19.015707506769804
lfemur -27.99458197597984 2.8366098604355674 -18.347737337744483
ltibia 54.79763001203208
lfoot -33.21033654625646 -3.5364035543988006
ltoes -20.639004973654178
